<svg id="Layer_1" data-name="Layer 1" xmlns="http://www.w3.org/2000/svg" xmlns:xlink="http://www.w3.org/1999/xlink" viewBox="0 0 450 450"><defs><style>.cls-1{fill:url(#linear-gradient);}.cls-2,.cls-3,.cls-4{fill:#fff;}.cls-3{font-size:40.1913px;font-family:Poppins-Regular, Poppins;}.cls-4{font-size:44.80089px;font-family:Poppins-Black, Poppins;font-weight:800;}</style><linearGradient id="linear-gradient" y1="225" x2="450" y2="225" gradientUnits="userSpaceOnUse"><stop offset="0" stop-color="#7200e9"/><stop offset="1" stop-color="#4f0094"/></linearGradient></defs><rect class="cls-1" width="450" height="450"/><path class="cls-2" d="M351.65191,197.66971l.02848-.01291-.18492-.24468a38.72743,38.72743,0,0,0-3.59684-4.7608L260.79376,77.34981h-.69183a38.64722,38.64722,0,0,0-70.28662,2.08457L105.02677,189.355a38.74786,38.74786,0,0,0-8.77516,11.37639l-.08724.1129.02748.01093a38.64664,38.64664,0,1,0,71.65421,28.0867l.01838.00729h.54216a57.32036,57.32036,0,0,1,114.2392,2.54015,38.64187,38.64187,0,1,0,69.00611-33.8196Z"/><circle class="cls-2" cx="224.82114" cy="240.43664" r="43.50457"/><text class="cls-3" transform="translate(141.10398 326.75421)">IMPULSO</text><text class="cls-4" transform="translate(98.30515 372.26104)">CRISTIANO</text></svg>